<svg xmlns="http://www.w3.org/2000/svg" width="805" height="610"><rect width="805" height="610" x="0" y="0" fill="#d2edf0" id="backgorund"/><g id="viz"><clipPath id="serieClipPath"><rect x="-40" y="-15" width="805" height="610"/></clipPath><g transform="translate(0,0)"><g transform="translate(40,15)" clip-path="url(#serieClipPath)"><g id="axis"><g transform="translate(0,565)" fill="none" font-size="10" font-family="sans-serif" text-anchor="middle"><path class="domain" stroke="currentColor" d="M0.5,6V0.5H741.5V6"/><g class="tick" opacity="1" transform="translate(0.5,0)"><line stroke="currentColor" y2="6"/><text fill="currentColor" y="9" dy="0.71em">Mar 13</text></g><g class="tick" opacity="1" transform="translate(45.409090909090914,0)"><line stroke="currentColor" y2="6"/><text fill="currentColor" y="9" dy="0.71em">Tue 15</text></g><g class="tick" opacity="1" transform="translate(90.31818181818183,0)"><line stroke="currentColor" y2="6"/><text fill="currentColor" y="9" dy="0.71em">Thu 17</text></g><g class="tick" opacity="1" transform="translate(135.22727272727272,0)"><line stroke="currentColor" y2="6"/><text fill="currentColor" y="9" dy="0.71em">Sat 19</text></g><g class="tick" opacity="1" transform="translate(180.13636363636365,0)"><line stroke="currentColor" y2="6"/><text fill="currentColor" y="9" dy="0.71em">Mon 21</text></g><g class="tick" opacity="1" transform="translate(225.04545454545456,0)"><line stroke="currentColor" y2="6"/><text fill="currentColor" y="9" dy="0.71em">Wed 23</text></g><g class="tick" opacity="1" transform="translate(269.95454545454544,0)"><line stroke="currentColor" y2="6"/><text fill="currentColor" y="9" dy="0.71em">Fri 25</text></g><g class="tick" opacity="1" transform="translate(314.8636363636364,0)"><line stroke="currentColor" y2="6"/><text fill="currentColor" y="9" dy="0.71em">Mar 27</text></g><g class="tick" opacity="1" transform="translate(359.7727272727273,0)"><line stroke="currentColor" y2="6"/><text fill="currentColor" y="9" dy="0.71em">Tue 29</text></g><g class="tick" opacity="1" transform="translate(404.68181818181813,0)"><line stroke="currentColor" y2="6"/><text fill="currentColor" y="9" dy="0.71em">Thu 31</text></g><g class="tick" opacity="1" transform="translate(427.1363636363637,0)"><line stroke="currentColor" y2="6"/><text fill="currentColor" y="9" dy="0.71em">April</text></g><g class="tick" opacity="1" transform="translate(472.04545454545456,0)"><line stroke="currentColor" y2="6"/><text fill="currentColor" y="9" dy="0.71em">Apr 03</text></g><g class="tick" opacity="1" transform="translate(516.9545454545455,0)"><line stroke="currentColor" y2="6"/><text fill="currentColor" y="9" dy="0.71em">Tue 05</text></g><g class="tick" opacity="1" transform="translate(561.8636363636364,0)"><line stroke="currentColor" y2="6"/><text fill="currentColor" y="9" dy="0.71em">Thu 07</text></g><g class="tick" opacity="1" transform="translate(606.7727272727274,0)"><line stroke="currentColor" y2="6"/><text fill="currentColor" y="9" dy="0.71em">Sat 09</text></g><g class="tick" opacity="1" transform="translate(651.6818181818181,0)"><line stroke="currentColor" y2="6"/><text fill="currentColor" y="9" dy="0.71em">Mon 11</text></g><g class="tick" opacity="1" transform="translate(696.5909090909091,0)"><line stroke="currentColor" y2="6"/><text fill="currentColor" y="9" dy="0.71em">Wed 13</text></g><g class="tick" opacity="1" transform="translate(741.5,0)"><line stroke="currentColor" y2="6"/><text fill="currentColor" y="9" dy="0.71em">Fri 15</text></g><text x="741" dy="-5" text-anchor="end" style="font-family: Arial, sans-serif; font-size: 12px; fill: rgb(123, 123, 123); font-weight: bold;">日期</text></g><g transform="translate(0,0)" fill="none" font-size="10" font-family="sans-serif" text-anchor="end"><path class="domain" stroke="currentColor" d="M0.5,565.5V0.5"/><g class="tick" opacity="1" transform="translate(0,565.5)"><line stroke="currentColor" x2="-6"/><text fill="currentColor" x="-9" dy="0.32em">22.0</text></g><g class="tick" opacity="1" transform="translate(0,484.78571428571433)"><line stroke="currentColor" x2="-6"/><text fill="currentColor" x="-9" dy="0.32em">22.5</text></g><g class="tick" opacity="1" transform="translate(0,404.07142857142856)"><line stroke="currentColor" x2="-6"/><text fill="currentColor" x="-9" dy="0.32em">23.0</text></g><g class="tick" opacity="1" transform="translate(0,323.35714285714283)"><line stroke="currentColor" x2="-6"/><text fill="currentColor" x="-9" dy="0.32em">23.5</text></g><g class="tick" opacity="1" transform="translate(0,242.64285714285717)"><line stroke="currentColor" x2="-6"/><text fill="currentColor" x="-9" dy="0.32em">24.0</text></g><g class="tick" opacity="1" transform="translate(0,161.92857142857142)"><line stroke="currentColor" x2="-6"/><text fill="currentColor" x="-9" dy="0.32em">24.5</text></g><g class="tick" opacity="1" transform="translate(0,81.21428571428574)"><line stroke="currentColor" x2="-6"/><text fill="currentColor" x="-9" dy="0.32em">25.0</text></g><g class="tick" opacity="1" transform="translate(0,0.5)"><line stroke="currentColor" x2="-6"/><text fill="currentColor" x="-9" dy="0.32em">25.5</text></g><text x="4" text-anchor="start" dominant-baseline="hanging" style="font-family: Arial, sans-serif; font-size: 12px; fill: rgb(123, 123, 123); font-weight: bold;">收盤</text></g></g><g id="viz"><g><path d="M22.454545454545457,387.42857142857116C33.68181818181819,387.42857142857116,33.68181818181819,508.4999999999998,44.909090909090914,508.4999999999998C56.13636363636364,508.4999999999998,56.13636363636364,484.28571428571433,67.36363636363636,484.28571428571433C78.5909090909091,484.28571428571433,78.5909090909091,363.21428571428567,89.81818181818183,363.21428571428567C101.04545454545456,363.21428571428567,101.04545454545456,169.50000000000009,112.27272727272728,169.50000000000009C145.95454545454547,169.50000000000009,145.95454545454547,145.28571428571408,179.63636363636365,145.28571428571408C190.86363636363637,145.28571428571408,190.86363636363637,112.99999999999991,202.09090909090907,112.99999999999991C213.3181818181818,112.99999999999991,213.3181818181818,88.7857142857144,224.54545454545456,88.7857142857144C235.77272727272728,88.7857142857144,235.77272727272728,32.28571428571417,247,32.28571428571417C258.22727272727275,32.28571428571417,258.22727272727275,56.50000000000024,269.45454545454544,56.50000000000024C303.1363636363636,56.50000000000024,303.1363636363636,96.85714285714307,336.8181818181818,96.85714285714307C348.04545454545456,96.85714285714307,348.04545454545456,72.64285714285701,359.2727272727273,72.64285714285701C370.5,72.64285714285701,370.5,104.92857142857117,381.7272727272727,104.92857142857117C392.9545454545454,104.92857142857117,392.9545454545454,169.50000000000009,404.18181818181813,169.50000000000009C415.4090909090909,169.50000000000009,415.4090909090909,185.6428571428569,426.6363636363637,185.6428571428569C482.77272727272725,185.6428571428569,482.77272727272725,234.07142857142844,538.9090909090909,234.07142857142844C550.1363636363636,234.07142857142844,550.1363636363636,306.7142857142855,561.3636363636364,306.7142857142855C572.590909090909,306.7142857142855,572.590909090909,282.5,583.8181818181818,282.5C617.5,282.5,617.5,395.49999999999983,651.1818181818181,395.49999999999983C662.4090909090909,395.49999999999983,662.4090909090909,395.49999999999983,673.6363636363636,395.49999999999983C684.8636363636364,395.49999999999983,684.8636363636364,314.78571428571416,696.0909090909091,314.78571428571416C707.3181818181819,314.78571428571416,707.3181818181819,330.9285714285715,718.5454545454546,330.9285714285715" stroke="#1f77b4" fill="none"/><text font-family="sans-serif" font-size="10" class="labels" x="247" y="32.28571428571417" dx="0" dy="-4" text-anchor="middle"/></g></g></g><text y="4" x="4" style="font-family: Arial, sans-serif; font-size: 12px; fill: black; font-weight: bold; dominant-baseline: hanging;"/></g><g id="grid"><rect x="0" y="0" width="805" height="610" fill="none" stroke="#ccc"/></g></g></svg>